<svg height="512" viewBox="0 0 58 58" width="512" xmlns="http://www.w3.org/2000/svg"><g id="016---Search-Questions" fill="none"><path id="Shape" d="m57.12 52.88-14.17-14.17-4.24 4.24 14.17 14.17c.5594065.5667368 1.3236896.8839864 2.12.88 1.2125666-.0010665 2.305263-.7319802 2.7691479-1.8523059.4638849-1.1203258.2077333-2.4097468-.6491479-3.2676941z" fill="#285680"/><path id="Rectangle-path" d="m43.502 43.502h5.996v5.996h-5.996z" fill="#f3d55b" transform="matrix(.707 -.707 .707 .707 -19.261 46.5)"/><circle id="Oval" cx="24" cy="24" fill="#3b97d3" r="24"/><path id="Shape" d="m34.11 6.75c-9.64 3.99-22.53 11.72-28.21 25.76-3.72447739-7.9307509-1.85325778-17.3624046 4.6168317-23.27057564 6.4700894-5.90817101 16.0324912-6.91714427 23.5931683-2.48942436z" fill="#9fc9d3"/><path id="Shape" d="m44 24c.0008284 9.3665196-6.4989697 17.4790076-15.6402379 19.5207974s-18.4751364-2.5340971-22.4597621-11.0107974c5.68-14.04 18.57-21.77 28.21-25.76 6.1288855 3.5829069 9.8944049 10.1506732 9.89 17.25z" fill="#84b5cb"/><path id="Shape" d="m24 45c-11.5979797 0-21-9.4020203-21-21s9.4020203-21 21-21 21 9.4020203 21 21c-.0132259 11.592497-9.407503 20.9867741-21 21zm0-40c-10.4934102 0-19 8.5065898-19 19s8.5065898 19 19 19 19-8.5065898 19-19c-.0115735-10.4886126-8.5113874-18.9884265-19-19z" fill="#2980ba"/><g fill="#fff"><path id="Shape" d="m24 31c-1.1045695 0-2-.8954305-2-2v-3.068c-.0022062-1.507668 1.1191235-2.7807952 2.615-2.969 2.661015-.3298092 4.588151-2.6999561 4.3681404-5.3722904-.2200106-2.6723342-2.5088343-4.6953853-5.1879592-4.5855461-2.679125.1098392-4.7946628 2.3134609-4.7951812 4.9948365 0 1.1045695-.8954305 2-2 2s-2-.8954305-2-2c.0010653-4.7097453 3.6330338-8.62219642 8.3296988-8.97296832 4.6966649-.3507719 8.8695043 2.97877462 9.5701532 7.63611222.7006488 4.6573376-2.3078688 9.0672459-6.899852 10.1138561v2.223c0 1.1045695-.8954305 2-2 2z"/><circle id="Oval" cx="24" cy="37" r="2"/></g></g></svg>